<svg id="logo_OUTLINE" xmlns="http://www.w3.org/2000/svg" viewBox="0 0 1920.71 347.75"><defs><style>.cls-1{fill:#fff;}.cls-2{fill:none;stroke:#fff;stroke-linecap:round;stroke-linejoin:round;stroke-width:0.71px;}</style></defs><polygon class="cls-1" points="1920.35 86.42 1865.45 127.16 1865.45 324.63 1817.8 254.77 1817.8 86.42 1865.45 86.42 1920.35 86.42"/><polygon class="cls-1" points="1681.73 86.42 1859.8 347.39 1817.8 347.39 1702.93 179.04 1668.23 128.2 1668.23 86.42 1681.73 86.42"/><polygon class="cls-1" points="1702.93 179.04 1702.93 347.39 1668.23 347.39 1668.23 128.2 1702.93 179.04"/><path class="cls-1" d="M1598.82,173.87h-34.7a138.63,138.63,0,0,0-31.83-88.42.52.52,0,0,0-.13-.17c-2.71-3.27-5.56-6.43-8.58-9.44a128.59,128.59,0,0,0,18.64-30.16A173.43,173.43,0,0,1,1598.82,173.87Z"/><path class="cls-1" d="M1390.35,310.37v0a55.07,55.07,0,0,1,4.52-18.88,2.29,2.29,0,0,1-.28-.07,35.92,35.92,0,0,0-12.32-44.9,63.21,63.21,0,0,1-30.68-46.37,41.62,41.62,0,0,0,40.85,24.36,98.2,98.2,0,0,0,46.88,34.92,53.49,53.49,0,0,1,26.34,4.37v0A103.92,103.92,0,0,0,1514.14,278c2.64.11,5.31.14,8,0a104,104,0,0,0,31.13-4.76,17.33,17.33,0,0,0,10.06-16.38,69.41,69.41,0,0,1,28.21,55.84c-7.56,3.82-15.13,7.6-25.71,8.75-15.38,1.66-37.17-2.29-50.36,1-13.57,3.44-18,14.58-56.18,24.23l-2.92.72h-31.61a178,178,0,0,1-22.84-1.56,53.33,53.33,0,0,1-11.45-28.42A55.14,55.14,0,0,1,1390.35,310.37Zm92.49-19c5.38-1.32,10.72-3.06,16.1-4.79a103.54,103.54,0,0,1-30.71-4.62c-2.74,4.17-5.48,8.37-3,9.82a7.43,7.43,0,0,0,2.43.7C1473.09,293.36,1478,292.53,1482.84,291.35Z"/><path class="cls-1" d="M1585.39,341.25c-1,2.08-2,4.17-3.16,6.14h-82.11a8.8,8.8,0,0,1,.8-.69c9.79-8.64,19.64-17.11,31.27-20.41a54,54,0,0,1,7.43-1.49A77.59,77.59,0,0,1,1585.39,341.25Z"/><path class="cls-1" d="M1522.44,84.72a131.89,131.89,0,0,1-8,186.33,102,102,0,0,1-14.16-1.64,121.39,121.39,0,0,0,11.31-181c2.57-2.36,5-4.82,7.39-7.35C1520.15,82.26,1521.33,83.47,1522.44,84.72Z"/><path class="cls-1" d="M1536.74,40.89A121.58,121.58,0,0,1,1512.34,78a121.43,121.43,0,0,1-87,37.31h-.55a104.13,104.13,0,0,0-41.2,199.76c0,.93.11,1.87.21,2.81a60.32,60.32,0,0,0,8.64,26.34,173.48,173.48,0,0,1-140.51-176.37,104,104,0,0,0,65.27-69.51A132,132,0,0,1,1425.3,42H1503V18.71A175.52,175.52,0,0,1,1536.74,40.89Z"/><path class="cls-1" d="M1496.06.35V35.06H1425.3a138.77,138.77,0,0,0-131.49,94.32,97.37,97.37,0,0,1-41.51,31,173.55,173.55,0,0,1,173-160Z"/><path class="cls-1" d="M1465.66,263.72v0a53.49,53.49,0,0,0-26.34-4.37,97.19,97.19,0,0,1-25.57-13.5,47.52,47.52,0,0,0-8.82-14.41,70.2,70.2,0,0,1-18.6-38.8,56,56,0,0,0,39,28.36A104.42,104.42,0,0,0,1465.66,263.72Z"/><path class="cls-1" d="M1394.59,291.38a2.29,2.29,0,0,0,.28.07,55.07,55.07,0,0,0-4.52,18.88,95.64,95.64,0,0,1-56.49-56.5A120.27,120.27,0,0,0,1394.59,291.38Z"/><polygon class="cls-1" points="1182.37 176.48 1182.37 257.69 1165.02 257.69 1110.12 217.19 1165.02 176.48 1182.37 176.48"/><polygon class="cls-1" points="1182.37 86.42 1006.01 217.25 1182.37 347.39 1123.93 347.39 972.76 235.86 947.67 217.32 972.76 198.69 1124.11 86.42 1182.37 86.42"/><polygon class="cls-1" points="972.76 198.69 947.67 217.32 938.06 217.32 938.06 88.02 972.76 88.02 972.76 198.69"/><polygon class="cls-1" points="972.76 235.86 972.76 347.39 938.06 347.39 938.06 217.32 947.67 217.32 972.76 235.86"/><polygon class="cls-1" points="757.42 86.42 868.65 347.39 830.93 347.39 734.48 121.12 719.7 86.42 724.84 86.42 757.42 86.42"/><polygon class="cls-1" points="747.12 330.04 747.12 347.39 702.56 347.39 702.56 330.04 724.84 277.61 747.12 330.04"/><polygon class="cls-1" points="719.7 86.42 734.48 121.12 715.19 121.12 618.71 347.39 580.99 347.39 692.25 86.42 719.7 86.42"/><path class="cls-1" d="M448.18,238.35l63.4,109H471.43l-60.94-104.8H348.78V207.88h71.81a43.43,43.43,0,0,0,4.23-86.76c-1.39-.07-2.81-.07-4.23,0H348.78V86.42h71.08a78.13,78.13,0,0,1,28.32,151.93Z"/><polygon class="cls-1" points="348.78 242.59 348.78 347.39 314.08 347.39 314.08 242.59 314.08 86.42 348.78 86.42 348.78 121.12 348.78 207.88 348.78 242.59"/><polygon class="cls-1" points="244.67 86.42 68.31 217.25 244.67 347.39 186.19 347.39 35.06 235.86 9.97 217.32 35.06 198.69 186.4 86.42 244.67 86.42"/><polygon class="cls-1" points="35.06 198.69 9.97 217.32 0.35 217.32 0.35 88.02 35.06 88.02 35.06 198.69"/><polygon class="cls-1" points="35.06 235.86 35.06 347.39 0.35 347.39 0.35 217.32 9.97 217.32 35.06 235.86"/><path class="cls-2" d="M1425.3,35.06h70.76V.35H1425.3a173.55,173.55,0,0,0-173,160,97.37,97.37,0,0,0,41.51-31A138.77,138.77,0,0,1,1425.3,35.06Z"/><path class="cls-2" d="M1425.3,42H1503V18.71a175.52,175.52,0,0,1,33.74,22.18A121.58,121.58,0,0,1,1512.34,78a121.43,121.43,0,0,1-87,37.31h-.55a104.13,104.13,0,0,0-41.2,199.76c0,.93.11,1.87.21,2.81a60.32,60.32,0,0,0,8.64,26.34,173.48,173.48,0,0,1-140.51-176.37,104,104,0,0,0,65.27-69.51A132,132,0,0,1,1425.3,42"/><path class="cls-2" d="M1532.16,85.28c-2.71-3.27-5.56-6.43-8.58-9.44a128.59,128.59,0,0,0,18.64-30.16,173.43,173.43,0,0,1,56.6,128.19h-34.7a138.63,138.63,0,0,0-31.83-88.42A.52.52,0,0,0,1532.16,85.28Z"/><path class="cls-2" d="M1465.66,263.76a53.49,53.49,0,0,0-26.34-4.37,98.2,98.2,0,0,1-46.88-34.92,41.62,41.62,0,0,1-40.85-24.36,63.21,63.21,0,0,0,30.68,46.37,35.92,35.92,0,0,1,12.32,44.9"/><path class="cls-2" d="M1582.23,347.39h-82.11a8.8,8.8,0,0,1,.8-.69c9.79-8.64,19.64-17.11,31.27-20.41a54,54,0,0,1,7.43-1.49,77.59,77.59,0,0,1,45.77,16.45C1584.42,343.33,1583.38,345.42,1582.23,347.39Z"/><path class="cls-2" d="M1519,81.08c-2.36,2.53-4.82,5-7.39,7.35a121.39,121.39,0,0,1-11.31,181,102,102,0,0,0,14.16,1.64,131.89,131.89,0,0,0,8-186.33C1521.33,83.47,1520.15,82.26,1519,81.08Z"/><path class="cls-2" d="M1591.53,312.69a69.41,69.41,0,0,0-28.21-55.84,17.33,17.33,0,0,1-10.06,16.38,104,104,0,0,1-31.13,4.76c-2.68.1-5.35.07-8,0A104.74,104.74,0,0,1,1425.3,221a56,56,0,0,1-39-28.36,70.2,70.2,0,0,0,18.6,38.8,47.52,47.52,0,0,1,8.82,14.41"/><path class="cls-2" d="M1390.35,310.37a55.14,55.14,0,0,0,.11,7,53.33,53.33,0,0,0,11.45,28.42,178,178,0,0,0,22.84,1.56h31.61l2.92-.72c38.14-9.65,42.61-20.79,56.18-24.23,13.19-3.29,35,.66,50.36-1,10.58-1.15,18.15-4.93,25.71-8.75"/><path class="cls-2" d="M1390.35,310.33a95.64,95.64,0,0,1-56.49-56.5,120.27,120.27,0,0,0,60.73,37.55,2.29,2.29,0,0,0,.28.07,55.07,55.07,0,0,0-4.52,18.88"/><line class="cls-2" x1="1390.35" y1="310.33" x2="1390.35" y2="310.37"/><path class="cls-2" d="M1390.49,310.4a.22.22,0,0,0-.14,0"/><path class="cls-2" d="M1498.94,286.56c-5.38,1.73-10.72,3.47-16.1,4.79-4.89,1.18-9.75,2-15.2,1.11a7.43,7.43,0,0,1-2.43-.7c-2.46-1.45.28-5.65,3-9.82A103.54,103.54,0,0,0,1498.94,286.56Z"/><line class="cls-2" x1="972.76" y1="198.69" x2="972.76" y2="88.02"/><line class="cls-2" x1="1702.93" y1="179.05" x2="1702.93" y2="347.39"/><polygon class="cls-2" points="1165.02 176.48 1110.12 217.19 1165.02 257.69 1182.37 257.69 1182.37 176.48 1165.02 176.48"/><polyline class="cls-2" points="972.76 88.02 938.06 88.02 938.06 217.32 938.06 347.39 972.76 347.39 972.76 235.86"/><polygon class="cls-2" points="1182.37 86.42 1124.11 86.42 972.76 198.69 947.67 217.32 972.76 235.86 1123.93 347.39 1182.37 347.39 1006.01 217.25 1182.37 86.42"/><polygon class="cls-2" points="1817.8 86.42 1817.8 254.77 1865.45 324.63 1865.45 127.16 1920.35 86.42 1865.45 86.42 1817.8 86.42"/><polyline class="cls-2" points="1702.93 347.39 1668.23 347.39 1668.23 128.2 1668.23 86.42 1681.73 86.42 1859.8 347.39 1817.8 347.39 1702.93 179.04 1668.23 128.2"/><line class="cls-2" x1="35.06" y1="198.69" x2="35.06" y2="88.02"/><polyline class="cls-2" points="35.06 88.02 0.35 88.02 0.35 217.32 0.35 347.39 35.06 347.39 35.06 235.86"/><polygon class="cls-2" points="244.67 86.42 186.4 86.42 35.06 198.69 9.97 217.32 35.06 235.86 186.19 347.39 244.67 347.39 68.31 217.25 244.67 86.42"/><polyline class="cls-2" points="719.7 86.42 734.48 121.12 830.93 347.39 868.65 347.39 757.42 86.42 724.84 86.42 719.7 86.42 692.25 86.42 580.99 347.39 618.71 347.39 715.19 121.12 734.48 121.12"/><path class="cls-2" d="M348.78,207.88h71.81a43.43,43.43,0,0,0,4.23-86.76c-1.39-.07-2.81-.07-4.23,0H348.78V347.39h-34.7v-261H419.86a78.13,78.13,0,0,1,28.32,151.93l63.4,109H471.43l-60.94-104.8H348.78"/><polygon class="cls-2" points="702.56 347.39 702.56 330.04 724.84 277.61 747.12 330.04 747.12 347.39 702.56 347.39"/><line class="cls-2" x1="348.78" y1="121.12" x2="348.78" y2="86.42"/></svg>